<?xml version="1.0" encoding="utf-8"?>
<!-- Generator: Adobe Illustrator 22.0.1, SVG Export Plug-In . SVG Version: 6.00 Build 0)  -->
<svg version="1.1" id="Artwork" xmlns="http://www.w3.org/2000/svg" xmlns:xlink="http://www.w3.org/1999/xlink" x="0px" y="0px"
	 viewBox="0 0 478.2 94.1" style="enable-background:new 0 0 478.2 94.1;" xml:space="preserve">
<style type="text/css">
	.st0{fill:#FFFFFF;}
	.st1{fill:#FAFAFA;}
	.st2{fill:url(#SVGID_1_);}
</style>
<g>
	<path class="st0" d="M91.7,61.1l7.2-5.7c2.1,3.7,5.5,5.7,9.3,5.7c4.2,0,6.4-2.7,6.4-5.7c0-3.6-4.3-4.7-8.8-6.1
		c-5.7-1.8-12-4-12-12.1c0-6.8,5.9-12.1,14-12.1c6.8,0,10.8,2.6,14.2,6.1l-6.5,4.9c-1.8-2.7-4.3-4.1-7.7-4.1c-3.8,0-5.9,2.1-5.9,4.8
		c0,3.4,4.1,4.5,8.6,6c5.7,1.9,12.2,4.4,12.2,12.5c0,6.7-5.3,13.2-14.6,13.2C100.6,68.7,95.6,65.4,91.7,61.1z M127.1,34.2h7.8v3.9
		c2.1-2.8,5.5-4.6,9.7-4.6c5.3,0,9,2.2,11,5.9c2.3-3.5,6.3-5.9,11.1-5.9c9.1,0,13.8,5.5,13.8,14.2v20.4h-8V48.3
		c0-4.9-2.6-8.1-7.4-8.1c-4.2,0-7.5,3-7.5,8.9v19h-7.9v-20c0-4.8-2.4-7.8-7.1-7.8c-4.4,0-7.7,3-7.7,9v18.8h-7.8V34.2z M184.4,51.2
		c0-11.2,8.2-17.7,16.8-17.7c4.5,0,8.5,1.9,10.9,4.8v-4.1h7.8v33.9h-7.8v-4.4c-2.5,3.1-6.6,5.1-11,5.1
		C192.9,68.8,184.4,62.2,184.4,51.2z M212.5,51c0-5.7-4.3-10.4-10.1-10.4s-10.3,4.6-10.3,10.4c0,5.9,4.5,10.6,10.3,10.6
		S212.5,56.9,212.5,51z M225.3,34.2h7.8v5c1.6-3.4,4.4-5,8.7-5c2.4,0,4.5,0.6,6,1.4l-3,7.4c-1.2-0.8-2.5-1.3-4.7-1.3
		c-4.5,0-7,2.4-7,8.3v18.1h-7.8V34.2z M249.6,34.2h5.8V29l7.9-5.4v10.6h6.9v7h-6.9v12.7c0,5.9,0.8,6.8,6.9,6.8v7.4h-1.1
		c-10.5,0-13.7-3.4-13.7-14.1V41.2h-5.8V34.2z M285.1,33.3h-11.3v-7.5h30.6v7.5H293v34.8h-7.9V33.3z M308.7,25.2h7.8v13
		c2.3-2.9,5.9-4.8,10.1-4.8c8.3,0,13.5,5.5,13.5,14.5v20.1h-8V48.8c0-5.3-2.6-8.6-7.7-8.6c-4.4,0-7.9,3.3-7.9,9.2v18.6h-7.9V25.2z
		 M349.1,20.9c3.1,0,4.9,2,4.9,4.9c0,2.9-1.9,4.9-4.9,4.9c-3.1,0-4.9-2-4.9-4.9C344.2,22.9,346.1,20.9,349.1,20.9z M345.2,34.2h7.9
		v33.9h-7.9V34.2z M358.2,34.2h7.8v4.2c2.3-3,5.8-4.9,10.1-4.9c8.3,0,13.5,5.5,13.5,14.5v20.1h-7.9V48.8c0-5.2-2.6-8.5-7.7-8.5
		c-4.5,0-7.9,3.3-7.9,9.2v18.6h-7.8V34.2z M421.3,63.6c-2.5,3.2-6.6,5.2-11.1,5.2c-8.2,0-16.7-6.6-16.7-17.6
		c0-11.2,8.2-17.7,16.8-17.7c4.5,0,8.5,2,10.9,5v-4.3h7.8v33c0,9.5-6,17.3-17.5,17.3c-8.8,0-14.3-4.1-17.4-9.7l7-4.2
		c2.4,4.5,5.2,6.8,10.6,6.8c5.9,0,9.6-4.6,9.6-9.8V63.6z M421.6,51c0-5.7-4.3-10.4-10.1-10.4s-10.3,4.6-10.3,10.4
		c0,5.9,4.5,10.6,10.3,10.6S421.6,56.9,421.6,51z M431.9,60.5l7.2-3.5c1.6,3.1,4.5,4.9,8.2,4.9c3.8,0,5.8-1.9,5.8-4.1
		c0-2.4-3.8-3-7.9-3.9c-5.9-1.2-11.9-3.1-11.9-10.2c0-5.5,5.2-10.4,13.3-10.4c6.7,0,11.2,2.7,13.9,7l-6.7,3.4
		c-1.4-2.4-3.9-3.9-7.2-3.9c-3.7,0-5.5,1.7-5.5,3.7c0,2.3,2.7,2.8,7.8,3.9c5.6,1.2,11.9,3.1,11.9,10.2c0,4.8-4.2,11.1-13.9,11.1
		C439.6,68.8,434.6,65.9,431.9,60.5z"/>
	<g>
		<path class="st1" d="M70.2,24c-6.2-5.5-14.3-6.7-21.9-6.7h-2.4C38,17.3,29.8,18.6,24,24c-5.4,6.2-6.7,14.3-6.7,21.9v2.3
			c0,7.8,1.3,16.1,6.7,21.9c6.2,5.5,14.4,6.7,22,6.7h2.1c7.9,0,16.2-1.3,22-6.7c5.5-6.2,6.7-14.4,6.7-22V46
			C76.8,38.1,75.5,29.8,70.2,24z"/>
		<g>
			<g>
				
					<linearGradient id="SVGID_1_" gradientUnits="userSpaceOnUse" x1="285.8269" y1="33.6251" x2="256.8313" y2="64.7191" gradientTransform="matrix(1 0 0 1 -224.4723 5.589248e-03)">
					<stop  offset="0" style="stop-color:#2ABDC4"/>
					<stop  offset="1" style="stop-color:#426AB2"/>
				</linearGradient>
				<path class="st2" d="M42.2,56.6l-1.8-1.3l-1,1.3c-0.7-0.3-1.5-0.5-2.3-0.5c-1.8,0-3.5,0.8-4.5,2.3c-1.8,2.4-1.3,5.9,1.2,7.6
					c1,0.7,2.1,1,3.3,1c1.8,0,3.5-0.8,4.5-2.3c1.6-2.1,1.4-5-0.4-6.9L42.2,56.6z M39.8,63.5c-0.6,0.8-1.6,1.4-2.7,1.4
					c-0.7,0-1.4-0.2-2-0.6c-1.5-1.1-1.8-3.1-0.7-4.6c0.6-0.8,1.6-1.4,2.7-1.4c0.7,0,1.4,0.2,2,0.6C40.5,60,40.9,62,39.8,63.5z
					 M57.1,56.1c-0.8,0-1.6,0.2-2.3,0.5l-1-1.3L52,56.6l1,1.3c-1.8,1.9-2,4.8-0.4,6.9c1,1.4,2.7,2.3,4.5,2.3c1.2,0,2.3-0.4,3.3-1
					c2.5-1.8,3.1-5.2,1.2-7.6C60.5,56.9,58.9,56.1,57.1,56.1z M59,64.2c-0.6,0.4-1.3,0.6-2,0.6c-1.1,0-2.1-0.5-2.7-1.4
					c-1.1-1.5-0.8-3.5,0.7-4.6c0.6-0.4,1.3-0.6,2-0.6c1.1,0,2.1,0.5,2.7,1.4C60.9,61.1,60.5,63.2,59,64.2z M68.6,41.3
					c-0.8-2.3-2.9-3.8-5.3-3.8c-0.6,0-1.2,0.1-1.7,0.3c-2.6,0.8-4.1,3.3-3.8,5.8l-1.6,0.5l0.7,2.1l1.6-0.5c1,1.7,2.8,2.8,4.9,2.8
					c0.6,0,1.2-0.1,1.7-0.3c1.4-0.5,2.6-1.4,3.3-2.7C68.9,44.1,69,42.7,68.6,41.3z M66.2,44.5c-0.4,0.8-1.1,1.4-2,1.6
					c-0.3,0.1-0.7,0.2-1,0.2c-1.5,0-2.7-0.9-3.2-2.3c-0.6-1.7,0.4-3.6,2.2-4.1c0.3-0.1,0.7-0.2,1-0.2c1.5,0,2.7,0.9,3.2,2.3
					C66.7,42.8,66.6,43.7,66.2,44.5z M54.7,48.1c0-3.7-2.6-6.7-6.3-7.3v-3.9c2.6-0.5,4.3-2.8,4.3-5.4c0-3-2.5-5.5-5.6-5.5
					c-3.1,0-5.6,2.5-5.6,5.5c0,2.6,2.2,4.9,4.7,5.4v3.9c-2.5,0.4-4.8,1.8-5.9,4l-3.8-1.2c0.1-1.1-0.1-2.1-0.6-3.1
					c-0.7-1.3-1.8-2.3-3.3-2.7c-0.6-0.2-1.1-0.3-1.7-0.3c-2.4,0-4.6,1.5-5.3,3.8c-1,2.9,0.7,6,3.6,6.9c0.6,0.2,1.1,0.3,1.7,0.3
					c2,0,3.9-1.1,4.9-2.8l3.8,1.2c-0.1,0.4-0.1,0.8-0.1,1.2c0,4.1,3.4,7.4,7.6,7.4C51.3,55.5,54.7,52.2,54.7,48.1z M34.1,44
					c-0.5,1.4-1.7,2.3-3.2,2.3c-0.4,0-0.7-0.1-1-0.2c-1.8-0.6-2.7-2.4-2.2-4.1c0.5-1.4,1.7-2.3,3.2-2.3c0.4,0,0.7,0.1,1,0.2
					c0.9,0.3,1.5,0.9,2,1.6C34.3,42.3,34.4,43.1,34.1,44z M43.7,31.5c0-1.8,1.5-3.3,3.4-3.3c1.9,0,3.4,1.5,3.4,3.3
					c0,1.8-1.5,3.3-3.4,3.3C45.2,34.8,43.7,33.3,43.7,31.5z M47.1,52.9c-2.7,0-4.9-2.2-4.9-4.8c0-2.7,2.2-4.8,4.9-4.8
					s4.9,2.2,4.9,4.8C52,50.8,49.8,52.9,47.1,52.9z"/>
			</g>
		</g>
	</g>
</g>
</svg>
