<svg id="Artwork" xmlns="http://www.w3.org/2000/svg" xmlns:xlink="http://www.w3.org/1999/xlink" viewBox="0 0 59.5 59.5"><defs><style>.cls-1{fill:#fafafa;}.cls-2{fill:url(#linear-gradient);}</style><linearGradient id="linear-gradient" x1="285.87" y1="62.34" x2="256.86" y2="31.23" gradientTransform="matrix(1, 0, 0, -1, -224.47, 96.01)" gradientUnits="userSpaceOnUse"><stop offset="0" stop-color="#2abdc4"/><stop offset="1" stop-color="#426ab2"/></linearGradient></defs><title>SmartThings_Wht_logo</title><path class="cls-1" d="M70.2,24c-6.2-5.5-14.3-6.7-21.9-6.7H45.9C38,17.3,29.8,18.6,24,24c-5.4,6.2-6.7,14.3-6.7,21.9v2.3c0,7.8,1.3,16.1,6.7,21.9,6.2,5.5,14.4,6.7,22,6.7h2.1c7.9,0,16.2-1.3,22-6.7,5.5-6.2,6.7-14.4,6.7-22V46C76.8,38.1,75.5,29.8,70.2,24Z" transform="translate(-17.3 -17.3)"/><path class="cls-2" d="M42.2,56.6l-1.8-1.3-1,1.3a5.93,5.93,0,0,0-2.3-.5A5.49,5.49,0,0,0,33.8,66a5.58,5.58,0,0,0,3.3,1,5.5,5.5,0,0,0,4.1-9.2Zm-2.4,6.9a3.45,3.45,0,0,1-2.7,1.4,3.61,3.61,0,0,1-2-.6,3.24,3.24,0,0,1-.7-4.6,3.45,3.45,0,0,1,2.7-1.4,3.61,3.61,0,0,1,2,.6A3.33,3.33,0,0,1,39.8,63.5Zm17.3-7.4a5.93,5.93,0,0,0-2.3.5l-1-1.3L52,56.6l1,1.3a5.31,5.31,0,0,0-.4,6.9,5.59,5.59,0,0,0,4.5,2.3,6.39,6.39,0,0,0,3.3-1,5.57,5.57,0,0,0-3.3-10ZM59,64.2a3.61,3.61,0,0,1-2,.6,3.19,3.19,0,0,1-2.7-1.4,3.24,3.24,0,0,1,.7-4.6,3.61,3.61,0,0,1,2-.6,3.19,3.19,0,0,1,2.7,1.4A3.14,3.14,0,0,1,59,64.2Zm9.6-22.9a5.59,5.59,0,0,0-5.3-3.8,4.67,4.67,0,0,0-1.7.3,5.4,5.4,0,0,0-3.8,5.8l-1.6.5.7,2.1,1.6-.5a5.63,5.63,0,0,0,4.9,2.8,4.67,4.67,0,0,0,1.7-.3,5.9,5.9,0,0,0,3.3-2.7A6.72,6.72,0,0,0,68.6,41.3Zm-2.4,3.2a3,3,0,0,1-2,1.6,3.55,3.55,0,0,1-1,.2A3.33,3.33,0,0,1,60,44a3.19,3.19,0,0,1,2.2-4.1,3.55,3.55,0,0,1,1-.2A3.33,3.33,0,0,1,66.4,42,3.13,3.13,0,0,1,66.2,44.5ZM54.7,48.1a7.33,7.33,0,0,0-6.3-7.3V36.9a5.38,5.38,0,0,0,4.3-5.4,5.6,5.6,0,0,0-11.2,0,5.85,5.85,0,0,0,4.7,5.4v3.9a7.87,7.87,0,0,0-5.9,4l-3.8-1.2a5.58,5.58,0,0,0-.6-3.1,5.26,5.26,0,0,0-3.3-2.7,5.08,5.08,0,0,0-1.7-.3,5.49,5.49,0,0,0-5.3,3.8,5.43,5.43,0,0,0,3.6,6.9,5.08,5.08,0,0,0,1.7.3,5.75,5.75,0,0,0,4.9-2.8l3.8,1.2a4.87,4.87,0,0,0-.1,1.2,7.6,7.6,0,0,0,15.2,0ZM34.1,44a3.33,3.33,0,0,1-3.2,2.3,3,3,0,0,1-1-.2,3.27,3.27,0,0,1,1-6.4,3,3,0,0,1,1,.2,4,4,0,0,1,2,1.6A3.1,3.1,0,0,1,34.1,44Zm9.6-12.5a3.4,3.4,0,1,1,3.4,3.3A3.35,3.35,0,0,1,43.7,31.5Zm3.4,21.4a4.89,4.89,0,0,1-4.9-4.8,4.82,4.82,0,0,1,4.9-4.8A4.89,4.89,0,0,1,52,48.1,4.82,4.82,0,0,1,47.1,52.9Z" transform="translate(-17.3 -17.3)"/></svg>