<?xml version="1.0" encoding="UTF-8" standalone="no"?>
<svg
   xmlns:dc="http://purl.org/dc/elements/1.1/"
   xmlns:cc="http://creativecommons.org/ns#"
   xmlns:rdf="http://www.w3.org/1999/02/22-rdf-syntax-ns#"
   xmlns:svg="http://www.w3.org/2000/svg"
   xmlns="http://www.w3.org/2000/svg"
   xmlns:sodipodi="http://sodipodi.sourceforge.net/DTD/sodipodi-0.dtd"
   xmlns:inkscape="http://www.inkscape.org/namespaces/inkscape"
   id="Artwork"
   viewBox="0 0 59.5 59.5"
   version="1.1"
   sodipodi:docname="SmartThings_Wht_on_purple_logo.svg"
   enable-background="new"
   inkscape:version="0.92.2 5c3e80d, 2017-08-06">
  <metadata
     id="metadata3775">
    <rdf:RDF>
      <cc:Work
         rdf:about="">
        <dc:format>image/svg+xml</dc:format>
        <dc:type
           rdf:resource="http://purl.org/dc/dcmitype/StillImage" />
        <dc:title>SmartThings_Wht_logo</dc:title>
      </cc:Work>
    </rdf:RDF>
  </metadata>
  <sodipodi:namedview
     pagecolor="#ffffff"
     bordercolor="#666666"
     borderopacity="1"
     objecttolerance="10"
     gridtolerance="10"
     guidetolerance="10"
     inkscape:pageopacity="0"
     inkscape:pageshadow="2"
     inkscape:window-width="1912"
     inkscape:window-height="1089"
     id="namedview3773"
     showgrid="false"
     inkscape:snap-global="false"
     inkscape:zoom="14.773109"
     inkscape:cx="19.5996"
     inkscape:cy="30.812943"
     inkscape:window-x="14"
     inkscape:window-y="5"
     inkscape:window-maximized="0"
     inkscape:current-layer="layer1" />
  <defs
     id="defs3764">
    <style
       id="style3757">.cls-1{fill:#fafafa;}.cls-2{fill:url(#linear-gradient);}</style>
    <linearGradient
       id="linear-gradient"
       x1="285.87"
       y1="62.34"
       x2="256.86"
       y2="31.23"
       gradientTransform="matrix(0.9476678,0,0,-0.9476678,-227.59496,76.669033)"
       gradientUnits="userSpaceOnUse">
      <stop
         offset="0"
         stop-color="#2abdc4"
         id="stop3759" />
      <stop
         offset="1"
         stop-color="#426ab2"
         id="stop3761" />
    </linearGradient>
  </defs>
  <title
     id="title3766">SmartThings_Wht_logo</title>
  <g
     inkscape:groupmode="layer"
     id="layer1"
     inkscape:label="Background"
     style="">
    <rect
       style="fill:#3e1784;stroke-width:1.02042806;fill-opacity:1"
       id="rect3782"
       width="59.770763"
       height="59.770763"
       x="-0.067690559"
       y="-0.067690611"
       ry="0" />
  </g>
  <path
     class="cls-1"
     d="M 51.688509,7.9062571 C 45.812969,2.6940842 38.13686,1.5568828 30.934585,1.5568828 h -2.274403 c -7.486575,0 -15.257451,1.2319682 -20.7539249,6.3493743 C 2.788851,13.781797 1.5568828,21.457907 1.5568828,28.660182 v 2.179636 c 0,7.391809 1.2319682,15.257451 6.3493743,20.753925 5.8755399,5.212173 13.6464159,6.349374 20.8486919,6.349374 h 1.990102 c 7.486576,0 15.352218,-1.231968 20.848692,-6.349374 5.212173,-5.87554 6.349374,-13.646416 6.349374,-20.848692 v -1.990102 c 0,-7.486576 -1.231968,-15.352218 -6.254608,-20.8486919 z"
     id="path3768"
     inkscape:connector-curvature="0"
     style="fill:#fafafa;stroke-width:0.94766784" />
  <path
     class="cls-2"
     d="m 25.119611,39.321445 -1.705802,-1.231968 -0.947668,1.231968 a 5.61967,5.61967 0 0 0 -2.179636,-0.473834 5.2026962,5.2026962 0 0 0 -3.127304,9.381912 5.2879864,5.2879864 0 0 0 3.127304,0.947668 5.212173,5.212173 0 0 0 3.885438,-8.718544 z m -2.274402,6.538908 a 3.269454,3.269454 0 0 1 -2.558704,1.326736 3.4210808,3.4210808 0 0 1 -1.895336,-0.568602 3.0704436,3.0704436 0 0 1 -0.663366,-4.359272 3.269454,3.269454 0 0 1 2.558702,-1.326734 3.4210808,3.4210808 0 0 1 1.895336,0.5686 3.1557338,3.1557338 0 0 1 0.663368,4.359272 z m 16.394652,-7.012742 a 5.61967,5.61967 0 0 0 -2.179636,0.473834 l -0.947668,-1.231968 -1.705802,1.231968 0.947668,1.231968 a 5.032116,5.032116 0 0 0 -0.379066,6.538908 5.297463,5.297463 0 0 0 4.264504,2.179636 6.0555972,6.0555972 0 0 0 3.127304,-0.947668 5.2785096,5.2785096 0 0 0 -3.127304,-9.476678 z m 1.80057,7.67611 a 3.4210808,3.4210808 0 0 1 -1.895336,0.5686 3.0230602,3.0230602 0 0 1 -2.558704,-1.326734 3.0704436,3.0704436 0 0 1 0.663368,-4.359272 3.4210808,3.4210808 0 0 1 1.895336,-0.568601 3.0230602,3.0230602 0 0 1 2.558702,1.326735 2.975677,2.975677 0 0 1 -0.663366,4.359272 z m 9.09761,-21.701593 a 5.297463,5.297463 0 0 0 -5.022639,-3.601137 4.4256086,4.4256086 0 0 0 -1.611035,0.2843 5.1174062,5.1174062 0 0 0 -3.601138,5.496473 l -1.516268,0.473834 0.663367,1.990103 1.516269,-0.473834 a 5.3353698,5.3353698 0 0 0 4.643572,2.65347 4.4256086,4.4256086 0 0 0 1.611035,-0.284301 5.59124,5.59124 0 0 0 3.127303,-2.558703 6.3683276,6.3683276 0 0 0 0.189534,-3.980205 z m -2.274402,3.032537 a 2.8430034,2.8430034 0 0 1 -1.895336,1.516268 3.3642208,3.3642208 0 0 1 -0.947668,0.189534 3.1557338,3.1557338 0 0 1 -3.032537,-2.179636 3.0230602,3.0230602 0 0 1 2.084869,-3.885438 3.3642208,3.3642208 0 0 1 0.947668,-0.189534 3.1557338,3.1557338 0 0 1 3.032537,2.179636 2.9662002,2.9662002 0 0 1 -0.189533,2.36917 z m -10.89818,3.411604 a 6.946405,6.946405 0 0 0 -5.970308,-6.917974 v -3.695906 a 5.0984528,5.0984528 0 0 0 4.074972,-5.117406 5.30694,5.30694 0 0 0 -10.61388,0 5.5438566,5.5438566 0 0 0 4.45404,5.117406 v 3.695906 a 7.4581456,7.4581456 0 0 0 -5.59124,3.79067 l -3.601138,-1.137201 a 5.2879864,5.2879864 0 0 0 -0.568601,-2.93777 4.9847326,4.9847326 0 0 0 -3.127303,-2.558703 4.8141524,4.8141524 0 0 0 -1.611036,-0.2843 5.2026962,5.2026962 0 0 0 -5.0226396,3.601137 5.1458362,5.1458362 0 0 0 3.4116036,6.538908 4.8141524,4.8141524 0 0 0 1.611036,0.284301 5.4490898,5.4490898 0 0 0 4.643572,-2.65347 l 3.601138,1.137201 a 4.6151422,4.6151422 0 0 0 -0.09476,1.137201 7.2022756,7.2022756 0 0 0 14.404551,0 z M 17.443502,27.380831 a 3.1557338,3.1557338 0 0 1 -3.032537,2.179636 2.8430034,2.8430034 0 0 1 -0.947668,-0.189534 3.0988738,3.0988738 0 0 1 0.947668,-6.065074 2.8430034,2.8430034 0 0 1 0.947668,0.189534 3.7906712,3.7906712 0 0 1 1.895336,1.516268 2.9377702,2.9377702 0 0 1 0.189533,2.36917 z m 9.097611,-11.845848 a 3.2220706,3.2220706 0 1 1 3.22207,3.127304 3.1746872,3.1746872 0 0 1 -3.22207,-3.127304 z m 3.22207,20.280092 a 4.6340956,4.6340956 0 0 1 -4.643572,-4.548806 4.5677588,4.5677588 0 0 1 4.643572,-4.548806 4.6340956,4.6340956 0 0 1 4.643572,4.548806 4.5677588,4.5677588 0 0 1 -4.643572,4.548806 z"
     id="path3770"
     style="fill:url(#linear-gradient);stroke-width:0.94766784"
     inkscape:connector-curvature="0" />
</svg>
